<svg xmlns="http://www.w3.org/2000/svg" xmlns:xlink="http://www.w3.org/1999/xlink" version="1.1" width="256" height="256" viewBox="0 0 256 256" xml:space="preserve">
<g style="stroke: none; stroke-width: 0; stroke-dasharray: none; stroke-linecap: butt; stroke-linejoin: miter; stroke-miterlimit: 10; fill: none; fill-rule: nonzero; opacity: 1;" transform="translate(1.4065934065934016 1.4065934065934016) scale(2.81 2.81)">
	<path d="M 67.494 46.262 L 46.755 67 c -3.601 3.601 -8.242 5.742 -13.068 6.031 c -4.791 0.287 -9.146 -1.287 -12.289 -4.43 c -6.55 -6.55 -5.831 -17.925 1.601 -25.358 l 20.738 -20.738 l -11.77 -11.771 l -8.707 8.707 c 0 0 0 0 -0.001 0 s 0 0 0 0.001 L 11.881 30.822 C 4.829 37.874 0.633 46.983 0.066 56.472 c -0.57 9.533 2.59 18.258 8.897 24.565 C 14.786 86.86 22.667 90 31.344 90 c 0.723 0 1.452 -0.021 2.184 -0.065 c 9.489 -0.567 18.598 -4.764 25.65 -11.815 l 20.087 -20.087 L 67.494 46.262 z M 76.437 58.033 l -6.587 6.587 l -8.942 -8.942 l 6.587 -6.587 L 76.437 58.033 z M 40.91 22.506 l -6.587 6.587 l -8.942 -8.942 l 6.587 -6.587 L 40.91 22.506 z M 57.764 76.705 c -13.869 13.869 -35.128 15.178 -47.388 2.918 c -12.26 -12.261 -10.951 -33.518 2.919 -47.387 l 10.671 -10.672 l 8.942 8.942 L 21.585 41.83 c -8.212 8.212 -8.931 20.857 -1.601 28.186 c 3.552 3.553 8.46 5.342 13.822 5.012 c 5.316 -0.317 10.417 -2.666 14.363 -6.613 l 11.324 -11.323 l 8.942 8.942 L 57.764 76.705 z" style="stroke: none; stroke-width: 1; stroke-dasharray: none; stroke-linecap: butt; stroke-linejoin: miter; stroke-miterlimit: 10; fill: rgb(0,0,0); fill-rule: nonzero; opacity: 1;" transform=" matrix(1 0 0 1 0 0) " stroke-linecap="round"/>
	<path d="M 41.74 13.734 c -0.256 0 -0.512 -0.098 -0.707 -0.293 c -0.391 -0.391 -0.391 -1.023 0 -1.414 L 52.766 0.293 c 0.391 -0.391 1.023 -0.391 1.414 0 c 0.391 0.391 0.391 1.023 0 1.414 L 42.447 13.441 C 42.252 13.636 41.996 13.734 41.74 13.734 z" style="stroke: none; stroke-width: 1; stroke-dasharray: none; stroke-linecap: butt; stroke-linejoin: miter; stroke-miterlimit: 10; fill: rgb(0,0,0); fill-rule: nonzero; opacity: 1;" transform=" matrix(1 0 0 1 0 0) " stroke-linecap="round"/>
	<path d="M 36.562 8.555 c -0.256 0 -0.512 -0.098 -0.707 -0.293 c -0.391 -0.391 -0.391 -1.023 0 -1.414 l 5.867 -5.867 c 0.391 -0.391 1.023 -0.391 1.414 0 s 0.391 1.023 0 1.414 l -5.867 5.867 C 37.073 8.458 36.818 8.555 36.562 8.555 z" style="stroke: none; stroke-width: 1; stroke-dasharray: none; stroke-linecap: butt; stroke-linejoin: miter; stroke-miterlimit: 10; fill: rgb(0,0,0); fill-rule: nonzero; opacity: 1;" transform=" matrix(1 0 0 1 0 0) " stroke-linecap="round"/>
	<path d="M 46.918 18.912 c -0.256 0 -0.512 -0.098 -0.707 -0.293 c -0.391 -0.391 -0.391 -1.023 0 -1.414 l 5.867 -5.867 c 0.391 -0.391 1.023 -0.391 1.414 0 c 0.391 0.391 0.391 1.023 0 1.414 l -5.867 5.867 C 47.429 18.814 47.173 18.912 46.918 18.912 z" style="stroke: none; stroke-width: 1; stroke-dasharray: none; stroke-linecap: butt; stroke-linejoin: miter; stroke-miterlimit: 10; fill: rgb(0,0,0); fill-rule: nonzero; opacity: 1;" transform=" matrix(1 0 0 1 0 0) " stroke-linecap="round"/>
	<path d="M 77.267 49.26 c -0.256 0 -0.512 -0.098 -0.707 -0.293 c -0.391 -0.391 -0.391 -1.023 0 -1.414 L 88.293 35.82 c 0.391 -0.391 1.023 -0.391 1.414 0 c 0.391 0.391 0.391 1.023 0 1.414 L 77.974 48.967 C 77.778 49.163 77.523 49.26 77.267 49.26 z" style="stroke: none; stroke-width: 1; stroke-dasharray: none; stroke-linecap: butt; stroke-linejoin: miter; stroke-miterlimit: 10; fill: rgb(0,0,0); fill-rule: nonzero; opacity: 1;" transform=" matrix(1 0 0 1 0 0) " stroke-linecap="round"/>
	<path d="M 72.088 44.082 c -0.256 0 -0.512 -0.098 -0.707 -0.293 c -0.391 -0.391 -0.391 -1.023 0 -1.414 l 5.867 -5.867 c 0.391 -0.391 1.023 -0.391 1.414 0 c 0.391 0.391 0.391 1.023 0 1.414 l -5.867 5.867 C 72.6 43.984 72.344 44.082 72.088 44.082 z" style="stroke: none; stroke-width: 1; stroke-dasharray: none; stroke-linecap: butt; stroke-linejoin: miter; stroke-miterlimit: 10; fill: rgb(0,0,0); fill-rule: nonzero; opacity: 1;" transform=" matrix(1 0 0 1 0 0) " stroke-linecap="round"/>
	<path d="M 82.444 54.439 c -0.256 0 -0.512 -0.098 -0.707 -0.293 c -0.391 -0.391 -0.391 -1.023 0 -1.414 l 5.867 -5.867 c 0.391 -0.391 1.023 -0.391 1.414 0 c 0.391 0.391 0.391 1.023 0 1.414 l -5.867 5.867 C 82.956 54.341 82.7 54.439 82.444 54.439 z" style="stroke: none; stroke-width: 1; stroke-dasharray: none; stroke-linecap: butt; stroke-linejoin: miter; stroke-miterlimit: 10; fill: rgb(0,0,0); fill-rule: nonzero; opacity: 1;" transform=" matrix(1 0 0 1 0 0) " stroke-linecap="round"/>
</g>
</svg>